HIERARCHY
ROOT Hips
{
	OFFSET 0.000000 100.481300 0.000000
	CHANNELS 6 Xposition Yposition Zposition Xrotation Yrotation Zrotation
	JOINT Spine
	{
		OFFSET -0.279200 12.230698 -2.892100
		CHANNELS 3 Xrotation Yrotation Zrotation
		JOINT Spine1
		{
			OFFSET -0.325700 14.269203 -3.374200
			CHANNELS 3 Xrotation Yrotation Zrotation
			JOINT Spine2
			{
				OFFSET -0.372300 16.307602 -0.352600
				CHANNELS 3 Xrotation Yrotation Zrotation
				JOINT Neck
				{
					OFFSET -0.418800 17.814194 8.416900
					CHANNELS 3 Xrotation Yrotation Zrotation
					JOINT Head
					{
						OFFSET 0.000000 7.031097 3.806800
						CHANNELS 3 Xrotation Yrotation Zrotation
						JOINT HeadTop_End
						{
							OFFSET 0.000000 24.646606 12.978600
							CHANNELS 3 Xrotation Yrotation Zrotation
							End Site
							{
								OFFSET 0.000000 27.854965 0.000000
							}
						}
					}
				}
				JOINT LeftShoulder
				{
					OFFSET 16.952999 14.495407 -7.737500
					CHANNELS 3 Xrotation Yrotation Zrotation
					JOINT LeftArm
					{
						OFFSET 9.308998 -2.777710 0.208600
						CHANNELS 3 Xrotation Yrotation Zrotation
						JOINT LeftForeArm
						{
							OFFSET 29.972298 0.000000 0.000000
							CHANNELS 3 Xrotation Yrotation Zrotation
							JOINT LeftHand
							{
								OFFSET 26.026505 0.000000 0.000000
								CHANNELS 3 Xrotation Yrotation Zrotation
								JOINT LeftHandThumb1
								{
									OFFSET 12.240501 -7.147949 9.207150
									CHANNELS 3 Xrotation Yrotation Zrotation
									JOINT LeftHandThumb2
									{
										OFFSET 4.138618 -2.389435 2.389433
										CHANNELS 3 Xrotation Yrotation Zrotation
										JOINT LeftHandThumb3
										{
											OFFSET 2.726913 -1.574387 1.574386
											CHANNELS 3 Xrotation Yrotation Zrotation
											JOINT LeftHandThumb4
											{
												OFFSET 3.941010 -2.275345 2.275342
												CHANNELS 3 Xrotation Yrotation Zrotation
												End Site
												{
													OFFSET -0.005798 5.087799 0.009903
												}
											}
										}
									}
								}
								JOINT LeftHandIndex1
								{
									OFFSET 24.424698 -1.985611 5.953459
									CHANNELS 3 Xrotation Yrotation Zrotation
									JOINT LeftHandIndex2
									{
										OFFSET 6.426697 0.000000 0.000000
										CHANNELS 3 Xrotation Yrotation Zrotation
										JOINT LeftHandIndex3
										{
											OFFSET 5.337898 0.000000 0.000000
											CHANNELS 3 Xrotation Yrotation Zrotation
											JOINT LeftHandIndex4
											{
												OFFSET 4.409401 0.000000 0.000000
												CHANNELS 3 Xrotation Yrotation Zrotation
												End Site
												{
													OFFSET 0.000000 4.409363 0.014373
												}
											}
										}
									}
								}
								JOINT LeftHandMiddle1
								{
									OFFSET 23.810104 0.000000 0.000000
									CHANNELS 3 Xrotation Yrotation Zrotation
									JOINT LeftHandMiddle2
									{
										OFFSET 7.176498 0.000000 0.000000
										CHANNELS 3 Xrotation Yrotation Zrotation
										JOINT LeftHandMiddle3
										{
											OFFSET 6.774902 0.000000 0.000000
											CHANNELS 3 Xrotation Yrotation Zrotation
											JOINT LeftHandMiddle4
											{
												OFFSET 5.403328 0.000000 0.000000
												CHANNELS 3 Xrotation Yrotation Zrotation
												End Site
												{
													OFFSET -0.027702 5.403244 0.017414
												}
											}
										}
									}
								}
								JOINT LeftHandRing1
								{
									OFFSET 22.908401 -0.839279 -6.020567
									CHANNELS 3 Xrotation Yrotation Zrotation
									JOINT LeftHandRing2
									{
										OFFSET 6.337502 0.000000 0.000000
										CHANNELS 3 Xrotation Yrotation Zrotation
										JOINT LeftHandRing3
										{
											OFFSET 5.779297 0.000000 0.000000
											CHANNELS 3 Xrotation Yrotation Zrotation
											JOINT LeftHandRing4
											{
												OFFSET 4.965698 0.000000 0.000000
												CHANNELS 3 Xrotation Yrotation Zrotation
												End Site
												{
													OFFSET 0.000000 4.965668 0.016186
												}
											}
										}
									}
								}
								JOINT LeftHandPinky1
								{
									OFFSET 20.037003 -1.530319 -10.950146
									CHANNELS 3 Xrotation Yrotation Zrotation
									JOINT LeftHandPinky2
									{
										OFFSET 5.254700 0.000000 0.000000
										CHANNELS 3 Xrotation Yrotation Zrotation
										JOINT LeftHandPinky3
										{
											OFFSET 4.810204 0.000000 0.000000
											CHANNELS 3 Xrotation Yrotation Zrotation
											JOINT LeftHandPinky4
											{
												OFFSET 3.647202 0.000000 0.000000
												CHANNELS 3 Xrotation Yrotation Zrotation
												End Site
												{
													OFFSET 0.000000 3.647186 0.011889
												}
											}
										}
									}
								}
							}
						}
					}
				}
				JOINT RightShoulder
				{
					OFFSET -15.141001 14.495407 -7.737500
					CHANNELS 3 Xrotation Yrotation Zrotation
					JOINT RightArm
					{
						OFFSET -9.308998 -2.777710 0.208500
						CHANNELS 3 Xrotation Yrotation Zrotation
						JOINT RightForeArm
						{
							OFFSET -29.972300 0.000000 0.000000
							CHANNELS 3 Xrotation Yrotation Zrotation
							JOINT RightHand
							{
								OFFSET -26.026505 0.000000 0.000000
								CHANNELS 3 Xrotation Yrotation Zrotation
								JOINT RightHandThumb1
								{
									OFFSET -12.240601 -7.148026 9.207092
									CHANNELS 3 Xrotation Yrotation Zrotation
									JOINT RightHandThumb2
									{
										OFFSET -4.138618 -2.389435 2.389433
										CHANNELS 3 Xrotation Yrotation Zrotation
										JOINT RightHandThumb3
										{
											OFFSET -2.726974 -1.574417 1.574421
											CHANNELS 3 Xrotation Yrotation Zrotation
											JOINT RightHandThumb4
											{
												OFFSET -3.941010 -2.275345 2.275343
												CHANNELS 3 Xrotation Yrotation Zrotation
												End Site
												{
													OFFSET 0.005814 5.087799 0.009927
												}
											}
										}
									}
								}
								JOINT RightHandIndex1
								{
									OFFSET -24.424698 -1.985657 5.953444
									CHANNELS 3 Xrotation Yrotation Zrotation
									JOINT RightHandIndex2
									{
										OFFSET -6.426697 0.000000 0.000000
										CHANNELS 3 Xrotation Yrotation Zrotation
										JOINT RightHandIndex3
										{
											OFFSET -5.337898 0.000000 0.000000
											CHANNELS 3 Xrotation Yrotation Zrotation
											JOINT RightHandIndex4
											{
												OFFSET -4.409401 0.000000 0.000000
												CHANNELS 3 Xrotation Yrotation Zrotation
												End Site
												{
													OFFSET 0.000000 4.409363 0.014408
												}
											}
										}
									}
								}
								JOINT RightHandMiddle1
								{
									OFFSET -23.810097 0.000000 0.000000
									CHANNELS 3 Xrotation Yrotation Zrotation
									JOINT RightHandMiddle2
									{
										OFFSET -7.176498 0.000000 0.000000
										CHANNELS 3 Xrotation Yrotation Zrotation
										JOINT RightHandMiddle3
										{
											OFFSET -6.774902 0.000000 0.000000
											CHANNELS 3 Xrotation Yrotation Zrotation
											JOINT RightHandMiddle4
											{
												OFFSET -5.403328 0.000000 0.000000
												CHANNELS 3 Xrotation Yrotation Zrotation
												End Site
												{
													OFFSET 0.027702 5.403244 0.017457
												}
											}
										}
									}
								}
								JOINT RightHandRing1
								{
									OFFSET -22.908302 -0.839325 -6.020576
									CHANNELS 3 Xrotation Yrotation Zrotation
									JOINT RightHandRing2
									{
										OFFSET -6.337502 0.000000 0.000000
										CHANNELS 3 Xrotation Yrotation Zrotation
										JOINT RightHandRing3
										{
											OFFSET -5.779297 0.000000 0.000000
											CHANNELS 3 Xrotation Yrotation Zrotation
											JOINT RightHandRing4
											{
												OFFSET -4.965698 0.000000 0.000000
												CHANNELS 3 Xrotation Yrotation Zrotation
												End Site
												{
													OFFSET 0.000000 4.965668 0.016226
												}
											}
										}
									}
								}
								JOINT RightHandPinky1
								{
									OFFSET -20.037003 -1.530334 -10.950259
									CHANNELS 3 Xrotation Yrotation Zrotation
									JOINT RightHandPinky2
									{
										OFFSET -5.254700 0.000000 0.000000
										CHANNELS 3 Xrotation Yrotation Zrotation
										JOINT RightHandPinky3
										{
											OFFSET -4.810204 0.000000 0.000000
											CHANNELS 3 Xrotation Yrotation Zrotation
											JOINT RightHandPinky4
											{
												OFFSET -3.647202 0.000000 0.000000
												CHANNELS 3 Xrotation Yrotation Zrotation
												End Site
												{
													OFFSET 0.000000 3.647186 0.011917
												}
											}
										}
									}
								}
							}
						}
					}
				}
			}
		}
	}
	JOINT LeftUpLeg
	{
		OFFSET 15.427100 -6.655098 0.678600
		CHANNELS 3 Xrotation Yrotation Zrotation
		JOINT LeftLeg
		{
			OFFSET 4.081073 -39.591068 13.024000
			CHANNELS 3 Xrotation Yrotation Zrotation
			JOINT LeftFoot
			{
				OFFSET -4.081074 -37.707932 -15.979700
				CHANNELS 3 Xrotation Yrotation Zrotation
				JOINT LeftToeBase
				{
					OFFSET 5.346399 -15.068900 20.645000
					CHANNELS 3 Xrotation Yrotation Zrotation
					JOINT LeftToe_End
					{
						OFFSET 2.754700 0.931300 11.300900
						CHANNELS 3 Xrotation Yrotation Zrotation
						End Site
						{
							OFFSET 0.000000 11.669021 0.000000
						}
					}
				}
			}
		}
	}
	JOINT RightUpLeg
	{
		OFFSET -15.569500 -6.655098 0.678600
		CHANNELS 3 Xrotation Yrotation Zrotation
		JOINT RightLeg
		{
			OFFSET -4.081825 -39.591045 13.023800
			CHANNELS 3 Xrotation Yrotation Zrotation
			JOINT RightFoot
			{
				OFFSET 4.081824 -37.707954 -15.979600
				CHANNELS 3 Xrotation Yrotation Zrotation
				JOINT RightToeBase
				{
					OFFSET -5.346400 -15.068900 20.645000
					CHANNELS 3 Xrotation Yrotation Zrotation
					JOINT RightToe_End
					{
						OFFSET -2.754700 0.931300 11.300900
						CHANNELS 3 Xrotation Yrotation Zrotation
						End Site
						{
							OFFSET 0.000000 11.669021 0.000000
						}
					}
				}
			}
		}
	}
}
MOTION
Frames: 5
Frame Time: 0.033333
-11.786617 118.808319 -9.827147 -55.512701 65.343061 41.147300 21.836818 9.932702 12.136098 6.351394 2.140682 -0.242395 6.404911 2.001643 -0.151374 7.793593 -0.464808 3.640610 14.582080 2.453694 -0.768502 0.000003 0.000000 -0.000001 0.387894 0.715842 -0.535316 4.358552 -26.028731 -40.193546 0.000008 -60.464967 0.000009 -67.214314 -31.940133 6.687673 -1.540036 3.690195 6.142367 3.939049 7.948703 0.746808 -0.579466 1.575004 2.538712 0.000001 0.000001 0.000001 0.000818 0.106450 -0.882107 0.000825 0.106449 -0.882106 0.000192 0.053225 -0.441053 -0.000000 0.000001 -0.000000 0.000792 0.104519 -0.866125 0.000853 0.108375 -0.898089 0.000193 0.053224 -0.441052 -0.000000 0.000001 0.000001 0.000818 0.106450 -0.882107 0.000824 0.106449 -0.882105 0.000197 0.053227 -0.441052 -0.000001 0.000001 0.000000 0.045258 4.160501 -0.373337 -0.016313 -3.947818 -1.393049 0.000192 0.053227 -0.441054 -0.000003 -0.000000 0.000000 0.585609 3.078027 -1.154318 169.191859 155.462906 -178.299343 0.000000 4.856373 -0.000001 -58.696904 36.917756 -31.177594 -1.847769 -3.579989 -6.585946 4.637199 -8.634137 -0.225408 -1.273749 0.137307 -2.094874 -0.000002 0.000002 0.000001 0.072894 -1.006128 8.285568 0.072875 -1.006138 8.285679 0.018239 -0.504378 4.142515 -0.000002 -0.000000 0.000003 0.072894 -1.006128 8.285571 0.072873 -1.006140 8.285679 0.018245 -0.504378 4.142503 -0.000001 -0.000001 -0.000003 0.072878 -1.006128 8.285581 0.072886 -1.006142 8.285670 0.018239 -0.504377 4.142514 -0.000000 0.000000 -0.000001 0.072894 -1.006128 8.285570 0.072876 -1.006142 8.285677 0.018236 -0.504379 4.142515 0.000001 -0.000003 -0.000002 12.834876 -34.719580 51.231285 93.267893 -18.417668 -10.323021 48.131896 -29.723774 -35.389099 -0.450759 -0.000021 0.000014 0.000001 -0.000001 0.000001 -55.815985 -11.214154 -63.487783 -39.625588 -19.171972 -14.634256 67.881671 15.398014 27.563829 -3.569757 0.000005 -0.000006 -0.000001 -0.000001 -0.000001 
-10.569242 122.644188 -9.519526 -58.172045 70.858875 44.185576 24.899663 6.108415 14.613934 6.582360 1.715351 -0.839584 6.638790 1.547355 -0.767029 8.640382 -0.697319 3.665804 18.202878 1.301149 -0.113253 0.000002 -0.000000 -0.000000 0.419728 -0.720314 0.665651 -12.924054 -20.206896 -38.240388 0.000041 -69.968963 0.000052 -48.627361 -35.314646 7.239078 -1.540036 3.690195 6.142366 3.939050 7.948705 0.746808 -0.579464 1.575003 2.538712 -0.000000 0.000000 -0.000000 0.000800 0.106138 -0.879533 0.000818 0.106137 -0.879540 0.000212 0.053075 -0.439765 0.000000 -0.000001 -0.000001 0.000775 0.104210 -0.863553 0.000866 0.108070 -0.895520 0.000199 0.053071 -0.439766 0.000000 0.000001 -0.000001 0.000800 0.106138 -0.879533 0.000818 0.106137 -0.879539 0.000215 0.053075 -0.439765 0.000000 -0.000000 0.000000 0.045054 4.160189 -0.370757 -0.016317 -3.948123 -1.390477 0.000212 0.053073 -0.439765 0.000000 -0.000001 -0.000001 0.510704 3.479017 -1.429277 152.632625 160.115070 -180.590311 0.000002 14.175037 -0.000003 -64.784699 30.450459 -22.484404 -1.849309 -3.580876 -6.585506 4.637199 -8.634136 -0.225407 -1.273747 0.137309 -2.094873 0.000000 0.000001 -0.000000 0.072889 -1.006099 8.285556 0.072865 -1.006062 8.285070 0.018244 -0.504352 4.142235 -0.000001 0.000001 -0.000000 0.072889 -1.006099 8.285555 0.072867 -1.006062 8.285071 0.018235 -0.504352 4.142222 -0.000002 -0.000000 0.000000 0.072887 -1.006104 8.285552 0.072868 -1.006058 8.285068 0.018242 -0.504354 4.142233 -0.000001 -0.000001 -0.000000 0.072889 -1.006099 8.285555 0.072865 -1.006064 8.285070 0.018241 -0.504354 4.142231 0.000000 0.000002 0.000002 57.639475 -38.075094 98.606396 82.884475 -24.574162 -45.302814 39.393410 -33.083135 -27.160689 0.350183 0.000023 0.000041 0.000000 0.000001 -0.000000 -80.119574 6.362888 -61.000174 -6.680566 -24.559762 -3.609661 69.056539 11.923413 27.129264 1.135895 0.000029 0.000006 0.000002 -0.000002 0.000001 
-9.965091 123.081398 -7.927975 -77.063344 78.024816 59.390489 25.616447 1.706278 21.119090 7.012692 1.074140 -1.343274 7.058910 0.834822 -1.276651 9.301819 -1.192546 4.227281 20.161055 -1.210152 3.191775 0.000001 0.000000 -0.000000 0.421833 -3.368397 1.202823 -29.102534 -18.999621 -28.454363 0.000039 -78.211260 0.000030 -42.138490 -38.746342 10.484339 -1.540037 3.690197 6.142367 3.939050 7.948707 0.746806 -0.579465 1.575003 2.538712 -0.000001 -0.000000 0.000000 0.000761 0.102305 -0.847695 0.000766 0.102300 -0.847700 0.000188 0.051152 -0.423846 -0.000002 0.000002 0.000000 0.000733 0.100380 -0.831709 0.000796 0.104226 -0.863683 0.000185 0.051154 -0.423852 -0.000001 0.000000 -0.000001 0.000761 0.102305 -0.847695 0.000766 0.102298 -0.847699 0.000186 0.051153 -0.423842 0.000000 0.000002 -0.000002 0.042757 4.156387 -0.338832 -0.016417 -3.951972 -1.358653 0.000194 0.051166 -0.423846 -0.000002 0.000001 0.000001 0.428434 3.151172 -1.414842 139.957939 169.439289 -183.722499 -0.000001 37.321817 0.000004 -63.529010 15.921734 -23.556626 -1.849592 -3.582378 -6.586276 4.637199 -8.634133 -0.225406 -1.273748 0.137307 -2.094873 -0.000000 0.000001 -0.000000 0.072911 -1.006325 8.287246 0.072909 -1.006335 8.287317 0.018257 -0.504481 4.143326 -0.000000 0.000000 -0.000000 0.072911 -1.006325 8.287243 0.072910 -1.006333 8.287318 0.018242 -0.504485 4.143343 -0.000001 0.000003 0.000000 0.072913 -1.006323 8.287242 0.072908 -1.006333 8.287317 0.018259 -0.504483 4.143323 -0.000001 0.000000 0.000003 0.072911 -1.006325 8.287244 0.072909 -1.006336 8.287317 0.018258 -0.504482 4.143328 0.000000 -0.000001 -0.000001 80.901200 -12.861933 124.319811 64.462888 -28.353273 -89.838202 36.244269 -29.107169 -11.283309 1.158080 -0.000015 0.000008 0.000001 0.000001 -0.000002 -104.031171 16.194237 -50.469398 20.622221 -20.375001 5.949233 59.132793 8.388745 33.652899 -1.116299 -0.000013 -0.000007 -0.000000 0.000000 0.000000 
-9.816701 118.540855 -4.598564 -130.111812 79.497665 106.882878 24.412023 -3.360070 27.346127 8.037925 0.182562 -0.932235 8.043572 -0.128445 -0.904032 9.525375 -1.602992 4.524351 20.011910 -4.550311 10.157454 -0.000001 0.000000 -0.000001 0.350682 -6.439245 1.258195 -41.437952 -25.412071 -16.312573 -0.000096 -81.894098 -0.000093 -39.705450 -42.048280 14.228778 -1.540035 3.690195 6.142366 3.939049 7.948705 0.746804 -0.579467 1.575006 2.538712 -0.000001 -0.000001 0.000000 0.001642 0.150075 -1.243673 0.001626 0.150096 -1.243654 0.000404 0.075033 -0.621840 -0.000001 -0.000002 0.000001 0.001586 0.148143 -1.227691 0.001673 0.152012 -1.259636 0.000404 0.075032 -0.621833 -0.000000 -0.000001 0.000000 0.001642 0.150075 -1.243674 0.001628 0.150095 -1.243652 0.000404 0.075035 -0.621839 0.000000 0.000002 -0.000001 0.071713 4.203764 -0.735911 -0.015108 -3.904192 -1.754510 0.000401 0.075032 -0.621838 -0.000001 -0.000001 -0.000002 0.423918 2.549102 -1.423508 130.549490 179.453467 -183.827356 0.000007 61.486278 -0.000006 -49.511748 0.934440 -25.568936 -1.849155 -3.581915 -6.586274 4.637198 -8.634138 -0.225410 -1.273746 0.137306 -2.094873 -0.000002 -0.000001 -0.000001 0.072859 -1.005848 8.283303 0.072828 -1.005865 8.283413 0.018233 -0.504241 4.141377 -0.000002 -0.000003 -0.000002 0.072860 -1.005847 8.283306 0.072826 -1.005864 8.283413 0.018234 -0.504241 4.141381 0.000000 -0.000000 0.000002 0.072849 -1.005852 8.283316 0.072837 -1.005864 8.283401 0.018234 -0.504239 4.141379 0.000001 0.000000 -0.000001 0.072859 -1.005848 8.283306 0.072829 -1.005865 8.283411 0.018234 -0.504237 4.141385 0.000002 -0.000002 0.000000 -17.803306 -19.892892 29.505755 109.040050 -6.868880 -0.317430 6.819015 -7.407880 -27.789794 2.521615 0.000005 0.000004 -0.000000 -0.000000 -0.000001 -119.805671 7.932184 -32.460150 20.547096 -19.524994 5.148791 46.821900 7.360199 37.022514 -3.542563 0.000026 -0.000007 -0.000000 0.000001 -0.000000 
-8.590981 118.708069 2.045219 -159.181028 72.212981 134.884679 20.585280 -10.017143 27.395687 9.757810 -0.809607 -0.052766 9.717570 -1.182396 -0.125541 8.715368 -2.028394 4.238249 20.155043 -8.230543 17.841320 -0.000001 0.000001 0.000000 0.063489 -6.380605 1.297141 -48.808214 -38.120836 -14.341975 -0.000071 -79.227749 -0.000058 -37.259724 -42.384722 17.590790 -1.540036 3.690194 6.142368 3.939051 7.948702 0.746808 -0.579465 1.575004 2.538712 -0.000000 -0.000000 -0.000002 0.005249 0.269292 -2.232115 0.005248 0.269309 -2.232115 0.001312 0.134667 -1.116047 0.000001 -0.000000 -0.000001 0.005170 0.267364 -2.216134 0.005313 0.271231 -2.248085 0.001315 0.134671 -1.116049 0.000000 -0.000002 0.000008 0.005249 0.269292 -2.232115 0.005247 0.269309 -2.232116 0.001310 0.134671 -1.116052 0.000001 -0.000001 0.000002 0.145376 4.321160 -1.727291 -0.010423 -3.784987 -2.742639 0.001314 0.134671 -1.116048 0.000000 -0.000000 0.000002 0.453106 1.712783 -1.159466 126.845287 189.312121 -181.561195 0.000154 79.943259 -0.000159 -29.206022 -5.082239 -19.034759 -1.849180 -3.581623 -6.586077 4.637198 -8.634137 -0.225409 -1.273747 0.137303 -2.094870 -0.000000 -0.000003 -0.000000 0.072848 -1.005862 8.283414 0.072836 -1.005858 8.283376 0.018223 -0.504252 4.141371 0.000002 0.000001 0.000000 0.072849 -1.005861 8.283414 0.072840 -1.005859 8.283378 0.018225 -0.504252 4.141376 0.000002 0.000000 0.000002 0.072849 -1.005860 8.283405 0.072837 -1.005861 8.283382 0.018225 -0.504251 4.141371 0.000003 0.000003 0.000001 0.072848 -1.005862 8.283414 0.072836 -1.005860 8.283374 0.018222 -0.504250 4.141373 0.000002 0.000001 -0.000002 -24.320851 -8.000545 18.162325 93.170993 -3.275911 -5.820171 -20.679972 3.659514 -28.169587 1.733493 -0.000022 0.000003 -0.000002 0.000002 -0.000004 -120.573206 -4.888620 -12.383959 18.889771 -19.110359 4.431824 33.099148 9.900342 34.308139 -0.655215 -0.000021 0.000000 -0.000000 0.000000 0.000002 
